<?xml version="1.0" standalone="no"?>
<!DOCTYPE svg PUBLIC "-//W3C//DTD SVG 1.1//EN" "http://www.w3.org/Graphics/SVG/1.1/DTD/svg11.dtd" >
<svg xmlns="http://www.w3.org/2000/svg">
<metadata></metadata>
<defs>
<font id="knockoutlightlight" horiz-adv-x="1024" >
<font-face units-per-em="2048" ascent="1638" descent="-410" />
<missing-glyph horiz-adv-x="335" />
<glyph unicode="&#xfb01;" horiz-adv-x="847" d="M39 805v143h111v101q0 147 62 231t191 84h70v-145h-47q-61 0 -87 -36t-26 -100v-135h142v-143h-131v-805h-174v805h-111zM578 0v958h172v-958h-172zM584 1112v182h159v-182h-159z" />
<glyph unicode="&#xfb02;" horiz-adv-x="847" d="M39 805v143h111v101q0 147 62 231t191 84h70v-145h-47q-61 0 -87 -36t-26 -100v-135h142v-143h-131v-805h-174v805h-111zM578 0v1364h172v-1364h-172z" />
<glyph horiz-adv-x="2048" />
<glyph horiz-adv-x="2048" />
<glyph unicode="&#xd;" horiz-adv-x="335" />
<glyph unicode=" "  horiz-adv-x="335" />
<glyph unicode="&#x09;" horiz-adv-x="335" />
<glyph unicode="&#xa0;" horiz-adv-x="335" />
<glyph unicode="!" horiz-adv-x="391" d="M102 770v594h189v-594l-68 -389h-53zM111 0v227h170v-227h-170z" />
<glyph unicode="&#x22;" horiz-adv-x="528" d="M55 952l70 412h158l-119 -412h-109zM281 952l100 412h160l-152 -412h-108z" />
<glyph unicode="#" horiz-adv-x="1144" d="M16 367v114h269l67 402h-278v114h299l61 367h127l-59 -367h256l61 367h127l-61 -367h243v-114h-264l-69 -402h276v-114h-297l-61 -367h-127l61 367h-256l-63 -367h-127l63 367h-248zM412 481h256l69 402h-258z" />
<glyph unicode="$" horiz-adv-x="878" d="M82 317v95h182v-70q0 -211 180 -211q86 0 132.5 55.5t46.5 130.5q0 49 -18.5 90.5t-49.5 78t-72 70.5t-88 69q-51 37 -103 80t-92 93t-65.5 109.5t-25.5 130.5q0 131 65.5 224.5t187.5 121.5v179h164v-174q131 -23 206 -115t75 -225v-91h-178v68q0 86 -41 145.5 t-135 59.5q-78 0 -119 -46t-41 -120q0 -43 14.5 -78t40 -66.5t61 -62.5t76.5 -65q55 -41 112.5 -86t102.5 -100.5t74 -124t29 -158.5q0 -139 -77 -230.5t-200 -116.5v-176h-164v176q-129 23 -204.5 115t-75.5 225z" />
<glyph unicode="%" horiz-adv-x="1163" d="M70 899v285q0 98 57 153.5t143 55.5q88 0 145.5 -55.5t57.5 -153.5v-285q0 -98 -57.5 -154.5t-145.5 -56.5q-86 0 -143 56.5t-57 154.5zM117 16l864 1391l80 -61l-864 -1391zM199 868q0 -31 19.5 -49t51.5 -18q33 0 53.5 18.5t20.5 48.5v346q0 29 -20.5 49.5t-53.5 20.5 t-52 -20.5t-19 -49.5v-346zM705 180v283q0 98 58 154.5t144 56.5q88 0 145.5 -56.5t57.5 -154.5v-283q0 -100 -57.5 -156.5t-145.5 -56.5q-86 0 -144 56.5t-58 156.5zM834 147q0 -29 20 -48t53 -19t53.5 19.5t20.5 47.5v349q0 29 -20.5 48t-53.5 19t-53 -19.5t-20 -47.5 v-349z" />
<glyph unicode="&#x26;" horiz-adv-x="1140" d="M68 309q0 135 69.5 239.5t188.5 190.5q-29 76 -44.5 154t-15.5 147q0 74 20.5 139.5t58.5 112.5t94.5 75t127.5 28q135 0 197.5 -86t62.5 -215q0 -131 -85 -232.5t-214 -179.5q16 -45 35 -94t40.5 -97.5t45 -91.5t47.5 -77q29 43 53.5 94t42 103t26.5 100.5t9 85.5h154 q0 -57 -14.5 -123t-39 -133.5t-57 -132t-71.5 -119.5q63 -68 129 -68q59 0 59 70v131h137v-137q0 -111 -56 -167.5t-155 -56.5q-57 0 -113.5 30t-109.5 83q-59 -53 -135 -83t-154 -30q-76 0 -137 27t-105 73t-67.5 108.5t-23.5 131.5zM252 336q0 -100 51 -150.5t143 -50.5 q41 0 79 17.5t61 40.5q-59 78 -110.5 182t-92.5 209q-59 -47 -95 -109.5t-36 -138.5zM440 1042q0 -45 10.5 -102t26.5 -121q106 72 146.5 146t40.5 127q0 61 -23 98t-74 37q-59 0 -93 -47t-34 -138z" />
<glyph unicode="'" horiz-adv-x="364" d="M86 952l86 412h182l-155 -412h-113z" />
<glyph unicode="(" horiz-adv-x="659" d="M180 616q0 301 113 547t323 412l48 -55q-63 -72 -119 -162t-96.5 -202t-64.5 -246t-24 -294t24 -293t64.5 -244.5t96 -201.5t119.5 -162l-48 -55q-211 166 -323.5 410.5t-112.5 545.5z" />
<glyph unicode=")" horiz-adv-x="659" d="M-6 -285q63 72 118.5 162t97.5 201.5t65.5 245t23.5 292.5q0 160 -23.5 294t-65.5 246t-97.5 202t-118.5 162l49 55q209 -166 322.5 -412t113.5 -547t-113.5 -545.5t-322.5 -410.5z" />
<glyph unicode="*" horiz-adv-x="641" d="M66.5 1171.5q-5.5 10.5 1.5 20.5l36 65q6 10 17.5 9.5t19.5 -4.5q31 -18 66 -43t76 -64q-12 51 -18.5 98t-6.5 78q0 10 6 19.5t19 9.5h75q12 0 17.5 -9.5t5.5 -19.5q0 -35 -5 -79t-18 -97q39 37 77 64.5t63 44.5q10 4 20 4t19 -11l36 -63q6 -10 1 -19.5t-15 -15.5 q-29 -16 -68.5 -33.5t-93.5 -33.5q51 -16 93 -34t69 -34q10 -6 15.5 -15.5t-1.5 -21.5l-36 -63q-6 -10 -17.5 -10.5t-19.5 4.5q-29 18 -64 43.5t-76 64.5q12 -51 17.5 -98t5.5 -78q0 -10 -5 -20.5t-18 -10.5h-75q-12 0 -17.5 10.5t-5.5 20.5q0 35 4 78t19 96 q-39 -35 -77 -63.5t-65 -42.5q-8 -6 -19 -6.5t-18 10.5l-36 65q-6 10 -1 19.5t15 13.5q29 18 69 34.5t93 32.5q-51 16 -94 36t-70 34q-10 4 -15.5 14.5z" />
<glyph unicode="+" horiz-adv-x="718" d="M82 618v148h205v221h147v-221h203v-148h-203v-223h-147v223h-205z" />
<glyph unicode="," horiz-adv-x="387" d="M74 -135q53 0 82.5 36t29.5 99h-75v231h168v-204q0 -98 -48.5 -160t-156.5 -62v60z" />
<glyph unicode="-" horiz-adv-x="557" d="M63 551v156h431v-156h-431z" />
<glyph unicode="." horiz-adv-x="387" d="M111 0v231h168v-231h-168z" />
<glyph unicode="/" horiz-adv-x="540" d="M4 -131l408 1624h131l-406 -1624h-133z" />
<glyph unicode="0" horiz-adv-x="911" d="M94 324v716q0 80 25.5 144.5t73 111.5t114 73t150.5 26t150.5 -26t113.5 -73t72.5 -111.5t25.5 -144.5v-716q0 -80 -25.5 -144.5t-72.5 -112t-113.5 -73t-150.5 -25.5t-150.5 25.5t-114 73t-73 112t-25.5 144.5zM274 305q0 -70 48.5 -119t134.5 -49t133 49.5t47 118.5 v754q0 70 -47 119t-133 49t-134.5 -49.5t-48.5 -118.5v-754z" />
<glyph unicode="1" horiz-adv-x="464" d="M139 0v1276q49 0 68.5 26.5t19.5 61.5h97v-1364h-185z" />
<glyph unicode="2" horiz-adv-x="802" d="M57 0v74q0 74 10.5 140.5t41 136t87 146t148.5 169.5q61 59 107.5 108t75 95t43 91.5t14.5 96.5q0 84 -41 131t-127 47q-90 0 -130 -48t-40 -136v-125h-164v127q0 68 20.5 130t61.5 109t103.5 75t146.5 28q92 0 157.5 -28t106.5 -76t59.5 -110t18.5 -132q0 -137 -82 -259 t-234 -245q-109 -111 -149.5 -204t-40.5 -165h493v-176h-686z" />
<glyph unicode="3" horiz-adv-x="815" d="M74 293v123h164v-101q0 -92 38.5 -139t124.5 -47t128 45t42 131v191q0 47 -29.5 86t-117.5 39h-107v147h107q88 0 117.5 38t29.5 87v164q0 86 -42 132t-128 46t-124.5 -47t-38.5 -139v-101h-164v123q0 68 19.5 126t60.5 102t103 70t149 26q166 0 254 -90.5t88 -237.5 v-139q0 -86 -42 -147.5t-120 -78.5q74 -20 118 -73.5t44 -143.5v-188q0 -147 -88.5 -237.5t-253.5 -90.5q-84 0 -146.5 25.5t-103.5 70t-61.5 103.5t-20.5 125z" />
<glyph unicode="4" horiz-adv-x="792" d="M20 309v135l480 920h149v-893h121v-162h-121v-309h-164v309h-465zM211 471h274v537z" />
<glyph unicode="5" horiz-adv-x="827" d="M80 293v104h164v-82q0 -84 41 -135t127 -51q170 0 170 186v308q0 70 -36 107.5t-100 37.5q-84 0 -132 -47t-70 -107l-152 31l37 719h633q-6 -92 -38 -131t-120 -39h-321l-27 -395q33 51 96.5 82.5t155.5 31.5q119 0 186.5 -72.5t67.5 -189.5v-346q0 -154 -91 -245 t-259 -91q-82 0 -144.5 27t-104.5 72t-62.5 103t-20.5 122z" />
<glyph unicode="6" horiz-adv-x="868" d="M92 319v711q0 166 96.5 265.5t264.5 99.5q84 0 146.5 -27t103 -72t62 -103t21.5 -122v-88h-163v66q0 186 -181 186q-86 0 -129 -52.5t-43 -148.5v-321q37 47 101.5 84t158.5 37q129 0 200 -80t71 -197v-238q0 -156 -93.5 -252t-261.5 -96q-166 0 -260 96.5t-94 251.5z M270 309q0 -80 48.5 -130t127.5 -50q82 0 129.5 47t47.5 119v233q0 72 -38 118t-132 46q-86 0 -134.5 -48t-48.5 -116v-219z" />
<glyph unicode="7" horiz-adv-x="763" d="M49 1192v172h705v-121q-90 -172 -161 -325.5t-121 -302t-76.5 -299t-28.5 -316.5h-197q4 143 36 296t86 306.5t123.5 303t145.5 286.5h-512z" />
<glyph unicode="8" horiz-adv-x="870" d="M84 297v164q0 86 42 144.5t101 86.5q-59 29 -98 87.5t-39 144.5v143q0 147 89 237.5t257 90.5q166 0 255 -90.5t89 -237.5v-143q0 -86 -39 -144.5t-96 -87.5q57 -29 99 -87t42 -144v-164q0 -147 -92 -237.5t-258 -90.5q-168 0 -260 90.5t-92 237.5zM256 307 q0 -86 51 -132t129 -46q76 0 127 46t51 132v154q0 29 -10 58.5t-31.5 53t-55.5 39t-81 15.5t-82 -15.5t-56.5 -39t-31.5 -53.5t-10 -58v-154zM260 915q0 -29 9.5 -58.5t31 -54t55 -39.5t80.5 -15t80 15t54.5 39.5t30.5 54.5t9 58v142q0 86 -49 132t-125 46q-78 0 -127 -46 t-49 -132v-142z" />
<glyph unicode="9" horiz-adv-x="888" d="M90 797v247q0 156 91 253.5t259 97.5q176 0 266.5 -97.5t90.5 -259.5v-714q0 -166 -95.5 -260.5t-261.5 -94.5q-84 0 -148.5 23.5t-108.5 65.5t-66.5 99.5t-22.5 125.5v88h162v-64q0 -92 52 -135t138 -43q88 0 129 50t41 136v316q-37 -49 -92 -85t-151 -36 q-68 0 -120 22.5t-89 61.5t-55.5 91t-18.5 112zM264 821q0 -70 42 -117t134 -47q86 0 131 48.5t45 115.5v234q0 74 -43 127t-133 53q-86 0 -131 -47t-45 -119v-248z" />
<glyph unicode=":" horiz-adv-x="387" d="M111 0v231h168v-231h-168zM111 666v231h168v-231h-168z" />
<glyph unicode=";" horiz-adv-x="387" d="M74 -135q53 0 82.5 36t29.5 99h-75v231h168v-204q0 -98 -48.5 -160t-156.5 -62v60zM111 666v231h168v-231h-168z" />
<glyph unicode="&#x3c;" horiz-adv-x="950" d="M104 655v56l695 448v-186l-451 -291l451 -291v-186z" />
<glyph unicode="=" horiz-adv-x="702" d="M72 446v164h559v-164h-559zM72 774v162h559v-162h-559z" />
<glyph unicode="&#x3e;" horiz-adv-x="950" d="M154 205v186l450 291l-450 293v184l692 -450v-54z" />
<glyph unicode="?" horiz-adv-x="753" d="M49 913v146q0 72 18.5 132t57.5 105t99.5 71t144.5 26q94 0 159.5 -28t106.5 -74t59.5 -107t18.5 -129q0 -117 -52.5 -214.5t-152.5 -195.5q-63 -61 -85 -111.5t-22 -123.5h-139q0 61 10.5 106t33 88t58 92t87.5 119q41 55 60 116.5t19 119.5q0 100 -38.5 142t-116.5 42 q-84 0 -122 -51t-38 -144v-127h-166zM242 0v227h170v-227h-170z" />
<glyph unicode="@" horiz-adv-x="1304" d="M61 627q0 139 47.5 261t129 211t193.5 140t243 51q152 0 260 -53t179 -136t104.5 -182.5t33.5 -191.5q0 -82 -22.5 -158.5t-66.5 -137t-109.5 -96.5t-149.5 -36q-68 0 -117 44t-47 114q-37 -63 -87 -101.5t-113 -38.5q-80 0 -129.5 57.5t-49.5 157.5q0 68 26 139.5 t69 130t102 96.5t127 38q57 0 91 -28.5t42 -80.5l33 99h135l-121 -385q-23 -66 -5 -108t77 -42q92 0 152.5 90t60.5 248q0 104 -36 191.5t-98.5 148.5t-149.5 95t-191 34q-113 0 -207 -45t-161.5 -122t-105.5 -181.5t-38 -222.5q0 -125 38 -228.5t105.5 -178.5t161.5 -116 t207 -41q106 0 194 35t152 97l57 -72q-78 -72 -179 -113t-224 -41q-131 0 -243 48.5t-193.5 135.5t-129 207.5t-47.5 266.5zM500 541q0 -59 26.5 -90t67.5 -31q53 0 87 44t58 118l47 157q0 43 -17 77t-64 34q-45 0 -83 -29.5t-65 -75t-42 -99.5t-15 -105z" />
<glyph unicode="A" horiz-adv-x="854" d="M14 0l310 1364h204l310 -1364h-197l-72 334h-295l-71 -334h-189zM309 500h226l-113 559z" />
<glyph unicode="B" horiz-adv-x="913" d="M111 0v1364h395q166 0 240.5 -79t74.5 -226v-111q0 -209 -174 -246q100 -20 144.5 -85.5t44.5 -165.5v-146q0 -147 -77 -226t-243 -79h-405zM305 168h211q70 0 97.5 37t27.5 94v160q0 153 -143 153h-2h-191v-444zM305 766h180q145 0 146 154v143q0 59 -26.5 96t-96.5 37 h-203v-430z" />
<glyph unicode="C" horiz-adv-x="909" d="M92 348v668q0 76 23.5 143.5t70.5 119.5t119 83t168 31t167 -28t116 -77t66.5 -114.5t21.5 -139.5v-147h-174v143q0 86 -47.5 138.5t-143.5 52.5q-98 0 -145 -52.5t-47 -130.5v-712q0 -78 47 -130.5t145 -52.5q96 0 143.5 51.5t47.5 139.5v143h174v-147 q0 -74 -21.5 -139.5t-66.5 -114.5t-116 -78t-167 -29t-168 31t-119 83t-70.5 120.5t-23.5 144.5z" />
<glyph unicode="D" horiz-adv-x="952" d="M111 0v1364h385q96 0 164.5 -27.5t112.5 -77t65.5 -117t21.5 -147.5v-626q0 -80 -21.5 -147.5t-65.5 -117t-112.5 -77t-164.5 -27.5h-385zM305 178h178q96 0 140.5 51.5t44.5 147.5v608q0 98 -44 149.5t-141 51.5h-178v-1008z" />
<glyph unicode="E" horiz-adv-x="804" d="M111 0v1364h634v-176h-442v-389h320v-168h-320v-455h442v-176h-634z" />
<glyph unicode="F" horiz-adv-x="772" d="M111 0v1366h628v-176h-434v-420h334v-170h-334v-600h-194z" />
<glyph unicode="G" horiz-adv-x="927" d="M92 344v676q0 76 23.5 143.5t70.5 118.5t119 81t168 30t166 -28t114 -77t64.5 -117.5t20.5 -150.5v-80h-185v102q0 35 -10 67t-31.5 56.5t-56.5 40t-82 15.5t-82 -15.5t-58.5 -41t-34.5 -58.5t-11 -68v-712q0 -35 11 -69t33.5 -59.5t57.5 -41t84 -15.5t84 15.5t58.5 41 t35 59.5t11.5 69v211h-183v163h367v-700h-96l-37 104q-35 -66 -104.5 -100.5t-162.5 -34.5q-88 0 -154.5 30t-111.5 80t-66.5 118.5t-21.5 146.5z" />
<glyph unicode="H" horiz-adv-x="995" d="M111 0v1364h194v-592h387v592h193v-1364h-193v598h-387v-598h-194z" />
<glyph unicode="I" horiz-adv-x="413" d="M111 0v1364h194v-1364h-194z" />
<glyph unicode="J" horiz-adv-x="866" d="M59 326v217h183v-211q0 -188 166 -189q158 0 157 189v1032h195v-1016q0 -82 -19.5 -151.5t-61.5 -120.5t-107.5 -79t-157.5 -28q-176 0 -265.5 94.5t-89.5 262.5z" />
<glyph unicode="K" horiz-adv-x="907" d="M111 0v1364h192v-664l371 664h207l-344 -586l344 -778h-211l-258 608l-109 -186v-422h-192z" />
<glyph unicode="L" horiz-adv-x="763" d="M111 0v1364h192v-1188h432v-176h-624z" />
<glyph unicode="M" horiz-adv-x="1241" d="M111 0v1364h270l186 -852l56 -260l55 262l182 850h270v-1364h-176v1063l-55 -260l-186 -803h-191l-182 803l-57 260v-1063h-172z" />
<glyph unicode="N" horiz-adv-x="991" d="M109 0v1364h157l324 -676l108 -239v915h185v-1364h-138l-337 664l-115 239v-903h-184z" />
<glyph unicode="O" horiz-adv-x="946" d="M92 360v644q0 84 23.5 154.5t70.5 122.5t119 82t168 30t168 -30t119 -82t70.5 -123t23.5 -154v-644q0 -84 -23.5 -155.5t-70.5 -123.5t-119 -82t-168 -30t-168 30t-119 82t-70.5 123.5t-23.5 155.5zM287 344q0 -88 45 -144.5t141 -56.5t142.5 56.5t46.5 144.5v676 q0 88 -46.5 144.5t-142.5 56.5t-141 -56.5t-45 -144.5v-676z" />
<glyph unicode="P" horiz-adv-x="880" d="M111 0v1364h395q166 0 242.5 -84t76.5 -231v-189q0 -145 -76.5 -229t-242.5 -84h-203v-547h-192zM303 713h205q68 0 95.5 37.5t27.5 103.5v201q0 68 -28 104.5t-95 36.5h-205v-483z" />
<glyph unicode="Q" horiz-adv-x="946" d="M92 344v676q0 76 23.5 143.5t70.5 118.5t119 81t168 30t167 -30t118 -81t70.5 -118.5t23.5 -143.5v-705q0 -96 -47 -168q23 -20 51.5 -27t73.5 -7v-113q-20 -16 -42 -23.5t-67 -7.5q-39 0 -75.5 14.5t-63.5 36.5q-92 -51 -209 -51q-96 0 -168 31t-119 82t-70.5 118.5 t-23.5 143.5zM287 326q0 -35 11 -68t34.5 -58.5t58.5 -41t82 -15.5q59 0 107 27l-56 51l135 107v710q0 35 -11 68t-33.5 58.5t-58.5 41t-83 15.5t-82 -15.5t-58.5 -41t-34.5 -58.5t-11 -68v-712z" />
<glyph unicode="R" horiz-adv-x="923" d="M111 0v1364h395q166 0 242.5 -79t76.5 -226v-150q0 -100 -38.5 -159.5t-137.5 -79.5q98 -16 140 -86t42 -152v-248q0 -53 58 -53v-145h-43q-115 0 -161 38.5t-46 145.5v266q0 72 -34 115t-107 43h-193v-594h-194zM305 741h180q145 0 146 156v166q0 59 -28 96t-97 37h-201 v-455z" />
<glyph unicode="S" horiz-adv-x="874" d="M61 315v95h193v-64q0 -211 184 -211q90 0 135 49t45 127q0 45 -11 83t-36.5 74t-68.5 71.5t-109 76.5q-57 37 -113.5 81t-101.5 96.5t-72.5 115t-27.5 135.5q0 74 23.5 137.5t69.5 110.5t113.5 74t153.5 27q84 0 150.5 -26t114 -72t73 -109.5t25.5 -138.5v-89h-185v64 q0 86 -43 145.5t-141 59.5q-80 0 -121 -43t-41 -113q0 -45 11.5 -82t41 -71.5t78 -72.5t121.5 -85q74 -49 129.5 -95.5t90 -96.5t52 -106t17.5 -122q0 -84 -28.5 -152.5t-79 -116.5t-119 -75t-148.5 -27q-84 0 -153.5 27t-118.5 73t-76 109.5t-27 136.5z" />
<glyph unicode="T" horiz-adv-x="806" d="M27 1186v178h753v-178h-278v-1186h-195v1186h-280z" />
<glyph unicode="U" horiz-adv-x="972" d="M106 326v1038h195v-1038q0 -186 186 -187q186 0 187 187v1038h192v-1038q0 -84 -27.5 -150.5t-78.5 -113t-121 -70t-154 -23.5q-82 0 -151.5 23.5t-120.5 70t-79 113t-28 150.5z" />
<glyph unicode="V" horiz-adv-x="878" d="M25 1364h202l219 -1055l220 1055h196l-330 -1364h-186z" />
<glyph unicode="W" horiz-adv-x="1265" d="M25 1364h196l144 -1008l192 1008h176l176 -1008l150 1008h190l-252 -1364h-188l-172 940l-184 -940h-189z" />
<glyph unicode="X" horiz-adv-x="884" d="M29 0l317 694l-299 670h209l199 -506l200 506h199l-299 -662l313 -702h-209l-215 522l-217 -522h-198z" />
<glyph unicode="Y" horiz-adv-x="833" d="M-6 1364h209l223 -629l223 629h195l-328 -815v-549h-192v549z" />
<glyph unicode="Z" horiz-adv-x="845" d="M51 0v88l506 1098h-479v178h719v-88l-500 -1100h481v-176h-727z" />
<glyph unicode="[" horiz-adv-x="604" d="M207 -307v1849h399v-143h-241v-1565h241v-141h-399z" />
<glyph unicode="\" horiz-adv-x="536" d="M-4 1493h133l408 -1624h-131z" />
<glyph unicode="]" horiz-adv-x="604" d="M-2 -166h242v1565h-242v143h399v-1849h-399v141z" />
<glyph unicode="^" horiz-adv-x="563" d="M25 1124v54q133 0 184 186h149q51 -186 183 -186v-54q-20 -6 -45 -10t-45 -4q-63 0 -108.5 43t-63.5 117q-16 -74 -62.5 -117t-112.5 -43q-20 0 -38.5 4t-40.5 10z" />
<glyph unicode="_" horiz-adv-x="690" d="M0 0h690v-156h-690v156z" />
<glyph unicode="`" horiz-adv-x="364" d="M39 1378h184l84 -276h-110z" />
<glyph unicode="a" horiz-adv-x="761" d="M61 231v23q0 82 37 137t97.5 91t137.5 57.5t159 33.5v134q0 55 -29 86.5t-88 31.5q-72 0 -94.5 -30.5t-22.5 -96.5v-49h-162v56q0 55 16.5 104t51.5 86t87 58.5t124 21.5q78 0 131 -22.5t87 -63.5t48 -95.5t14 -119.5v-508q0 -53 56 -53v-129h-52q-51 0 -87.5 26.5 t-39.5 91.5q-41 -55 -101 -86.5t-132 -31.5q-111 0 -174.5 65.5t-63.5 181.5zM223 238q0 -47 26.5 -80t80.5 -33q61 0 111.5 40t50.5 105v183q-268 -33 -269 -191v-24z" />
<glyph unicode="b" horiz-adv-x="788" d="M98 0v1364h170v-528q31 59 87.5 99t133.5 40q109 0 163.5 -79t54.5 -200v-432q0 -129 -68 -204.5t-178 -75.5q-66 0 -129.5 31.5t-93.5 115.5l-27 -131h-113zM268 279q0 -78 42 -118t96 -40q63 0 98 40t35 128v368q0 88 -33 128t-96 40q-66 0 -104 -42t-38 -115v-389z " />
<glyph unicode="c" horiz-adv-x="731" d="M82 301v352q0 147 80 234.5t219 87.5q141 0 213 -84t72 -232v-41h-152v68q0 61 -32.5 101t-98.5 40t-99.5 -39.5t-33.5 -111.5v-395q0 -150 133 -150q66 0 98.5 38t32.5 103v66h152v-41q0 -147 -72 -230t-213 -83q-139 0 -219 85t-80 232z" />
<glyph unicode="d" horiz-adv-x="788" d="M82 264v416q0 135 65.5 215t167.5 80q76 0 121 -27.5t84 -83.5v500h172v-1364h-127l-12 131q-33 -84 -95.5 -115.5t-127.5 -31.5q-111 0 -179.5 75.5t-68.5 204.5zM250 289q0 -88 34.5 -128t98.5 -40q53 0 95 40t42 118v393q0 74 -37 116.5t-100 42.5t-98 -40.5 t-35 -126.5v-375z" />
<glyph unicode="e" horiz-adv-x="735" d="M82 301v352q0 147 80 234.5t219 87.5t212 -87t73 -235v-184h-416v-195q0 -66 33.5 -105.5t99.5 -39.5t98.5 40t32.5 105v66h152v-43q0 -147 -73 -230t-212 -83t-219 85t-80 232zM250 567h264v115q0 66 -32.5 105.5t-98.5 39.5t-99.5 -39.5t-33.5 -105.5v-115z" />
<glyph unicode="f" horiz-adv-x="479" d="M39 805v143h111v101q0 147 62 231t191 84h70v-145h-47q-61 0 -87 -36t-26 -100v-135h142v-143h-131v-805h-174v805h-111z" />
<glyph unicode="g" horiz-adv-x="757" d="M57 -82q0 61 37 102t117 64q-68 16 -101.5 57t-33.5 88q0 51 42 95.5t101 54.5q-66 33 -96.5 99.5t-30.5 146.5v61q0 61 22.5 114.5t61.5 91.5t92.5 60.5t114.5 22.5q55 0 85 -11.5t46 -11.5q63 0 86 33t23 82h120q4 -33 5.5 -50.5t1.5 -33.5q0 -59 -31 -87t-66 -28 q-16 0 -33.5 2t-35.5 13q47 -41 68.5 -90.5t21.5 -102.5v-72q0 -61 -20.5 -112t-59.5 -89t-92 -58.5t-119 -20.5q-14 0 -43 3t-39 7q-35 0 -58.5 -25.5t-23.5 -52.5q0 -35 42 -57.5t163 -22.5q156 0 228.5 -59t72.5 -158v-45q0 -59 -22.5 -109t-65.5 -88t-104.5 -59.5 t-139.5 -21.5q-72 0 -133 16.5t-106 47t-71 73.5t-26 96v35zM211 -51v-41q0 -45 43 -80t139 -35t136 37t40 82v41q0 45 -35.5 73.5t-140.5 28.5q-96 0 -139 -30.5t-43 -75.5zM246 614q0 -59 35.5 -102t101.5 -43q63 0 99 43t36 102v80q0 59 -36 102.5t-99 43.5 q-66 0 -101.5 -43t-35.5 -103v-80z" />
<glyph unicode="h" horiz-adv-x="804" d="M98 0v1364h172v-567q33 92 96.5 134t129.5 42q100 0 158.5 -73t58.5 -193v-707h-174v700q0 61 -31 97.5t-84 36.5q-37 0 -65.5 -24t-48 -55.5t-30 -67.5t-10.5 -60v-627h-172z" />
<glyph unicode="i" horiz-adv-x="368" d="M98 0v958h172v-958h-172zM104 1112v182h160v-182h-160z" />
<glyph unicode="j" horiz-adv-x="368" d="M-29 -207h23q63 0 83.5 24.5t20.5 71.5v1069h172v-1021q0 -129 -52 -202t-183 -73h-64v131zM104 1112v182h160v-182h-160z" />
<glyph unicode="k" horiz-adv-x="755" d="M98 0v1364h172v-883l267 480h172l-226 -404l252 -557h-178l-180 424l-107 -172v-252h-172z" />
<glyph unicode="l" horiz-adv-x="368" d="M98 0v1364h172v-1364h-172z" />
<glyph unicode="m" horiz-adv-x="1130" d="M98 0v958h146l10 -163q37 98 91 138t124 40t112 -41t62 -113q35 84 85 119t120 35q92 0 140 -64.5t48 -181.5v-727h-170v715q0 53 -22.5 84.5t-67.5 31.5q-37 0 -59.5 -23.5t-36.5 -55t-19.5 -67.5t-5.5 -60v-625h-174v717q0 53 -20.5 85t-65.5 32q-37 0 -61.5 -24 t-37.5 -55.5t-19.5 -67.5t-6.5 -60v-627h-172z" />
<glyph unicode="n" horiz-adv-x="806" d="M98 0v958h144l12 -190q39 111 95.5 158t129.5 47q117 0 175.5 -73t58.5 -193v-707h-174v700q0 61 -31 97.5t-84 36.5q-37 0 -65.5 -24t-48 -55.5t-30 -67.5t-10.5 -60v-627h-172z" />
<glyph unicode="o" horiz-adv-x="765" d="M82 301v352q0 147 81 234.5t220 87.5t219 -87t80 -235v-352q0 -147 -80 -232t-219 -85t-220 85t-81 232zM252 272q0 -66 32.5 -103.5t98.5 -37.5t98.5 38t32.5 103v414q0 61 -32.5 101t-98.5 40t-98.5 -39.5t-32.5 -101.5v-414z" />
<glyph unicode="p" horiz-adv-x="788" d="M98 -332v1290h127l13 -131q31 82 94 115t129 33q111 0 177.5 -76t66.5 -205v-444q0 -57 -16.5 -106.5t-46.5 -85t-68.5 -55t-86.5 -19.5q-76 0 -126 25.5t-93 84.5v-426h-170zM268 291q0 -74 37 -117t101 -43q131 0 131 170v369q0 168 -131 168q-53 0 -95.5 -40 t-42.5 -120v-387z" />
<glyph unicode="q" horiz-adv-x="788" d="M82 248v442q0 131 67.5 207t180.5 76q33 0 65.5 -8.5t62 -25.5t55.5 -46t40 -70l27 133h112v-1290h-172v455q-35 -68 -88 -103.5t-141 -35.5q-43 0 -81 19t-66.5 55t-45 85t-16.5 107zM250 297q0 -88 34.5 -128t98.5 -40q63 0 100 42t37 118v387q0 80 -42 120t-95 40 q-63 0 -98 -41t-35 -127v-371z" />
<glyph unicode="r" horiz-adv-x="540" d="M98 0v958h144l14 -170q38 119 102 156q45 26 104 26q26 0 54 -5v-174q-43 5 -78 5q-76 0 -114 -24q-54 -35 -54 -100v-672h-172z" />
<glyph unicode="s" horiz-adv-x="704" d="M66 264v47h143v-43q0 -78 41 -111.5t106 -33.5q131 0 131 115q0 29 -6 53t-24.5 45.5t-51 44t-86.5 47.5q-117 49 -178 117.5t-61 169.5q0 55 19.5 102t56.5 82t88 55.5t114 20.5q143 0 210 -69.5t67 -194.5v-37h-139v41q0 112 -134 112h-2q-59 0 -90.5 -26.5 t-31.5 -71.5q0 -27 9 -49.5t30.5 -44t58.5 -43t92 -47.5q117 -51 167 -122t50 -173q0 -53 -19.5 -101.5t-56.5 -85t-90 -58t-121 -21.5q-145 0 -218.5 77.5t-73.5 202.5z" />
<glyph unicode="t" horiz-adv-x="489" d="M35 805v143h121v172l163 56v-228h132v-143h-132v-504q0 -92 10.5 -163.5t41.5 -137.5h-176q-29 59 -39.5 128t-10.5 173v504h-110z" />
<glyph unicode="u" horiz-adv-x="808" d="M96 250v708h174v-702q0 -63 31 -99t84 -36q37 0 65.5 23.5t48 55t30 67.5t10.5 61v630h172v-958h-144l-12 164q-35 -96 -93.5 -138t-131.5 -42q-117 0 -175.5 72.5t-58.5 193.5z" />
<glyph unicode="v" horiz-adv-x="692" d="M16 958h170l119 -532l41 -217l43 217l115 532h170l-246 -958h-164z" />
<glyph unicode="w" horiz-adv-x="1017" d="M16 958h170l84 -528l35 -217l37 217l102 528h146l86 -528l37 -217l35 217l100 528h151l-211 -958h-151l-88 397l-39 217l-41 -217l-90 -397h-152z" />
<glyph unicode="x" horiz-adv-x="681" d="M20 0l244 479l-244 479h175l151 -337l152 337h172l-242 -479l242 -479h-174l-152 338l-151 -338h-173z" />
<glyph unicode="y" horiz-adv-x="692" d="M16 958h172l115 -530l41 -215l43 215l115 530h170l-260 -1021q-16 -63 -35 -114.5t-47.5 -86.5t-71.5 -54.5t-108 -19.5h-64v137h49q63 0 85 21.5t34 68.5l16 82z" />
<glyph unicode="z" horiz-adv-x="647" d="M47 0v104l377 713h-358v141h538v-104l-373 -713h361v-141h-545z" />
<glyph unicode="{" horiz-adv-x="655" d="M137 559v115h66q78 0 107.5 24.5t29.5 77.5q0 41 -25.5 91.5t-55.5 109.5t-55.5 129t-25.5 147q0 59 18.5 111.5t55.5 92.5t94 62.5t133 22.5h72v-137h-74q-72 0 -103.5 -40t-31.5 -101q0 -59 21.5 -120t47 -118t47 -109.5t21.5 -95.5q0 -80 -43 -132t-135 -73 q178 -39 178 -202q0 -43 -21.5 -96.5t-47 -109.5t-47 -116.5t-21.5 -120.5q0 -63 32 -103t103 -40h74v-135h-72q-76 0 -133 22.5t-94 62.5t-55.5 91t-18.5 111q0 80 25.5 148.5t55.5 128.5t55.5 110.5t25.5 89.5q0 53 -29.5 77.5t-107.5 24.5h-66z" />
<glyph unicode="|" horiz-adv-x="348" d="M111 -131v1624h127v-1624h-127z" />
<glyph unicode="}" horiz-adv-x="655" d="M106 -172h72q72 0 104.5 40t32.5 103q0 59 -21.5 120t-48 117t-48 109.5t-21.5 96.5q0 164 180 202q-92 20 -136 72.5t-44 132.5q0 43 21.5 95.5t48 109.5t48 117.5t21.5 120.5q0 61 -32.5 101t-104.5 40h-72v137h70q78 0 134.5 -22.5t94 -62.5t56 -92t18.5 -112 q0 -78 -25.5 -147.5t-56 -128.5t-56.5 -109.5t-26 -91.5q0 -53 30 -77.5t108 -24.5h65v-115h-65q-78 0 -108 -24.5t-30 -77.5q0 -39 26 -89.5t56.5 -110.5t56 -129t25.5 -148q0 -59 -18.5 -110.5t-56 -91.5t-94 -62.5t-134.5 -22.5h-70v135z" />
<glyph unicode="~" horiz-adv-x="581" d="M25 643q0 72 33.5 113t105.5 41q37 0 73.5 -17.5t70.5 -37t61.5 -37t46.5 -17.5q23 0 31 11.5t8 33.5v68h75q27 -35 27 -84q0 -70 -34 -111t-105 -41q-37 0 -73 17.5t-69.5 37t-62.5 37t-47 17.5q-23 0 -30 -11.5t-7 -31.5v-68h-78q-12 18 -19 38t-7 42z" />
<glyph unicode="&#xa1;" horiz-adv-x="391" d="M102 188l68 390h53l68 -390v-594h-189v594zM111 731v227h170v-227h-170z" />
<glyph unicode="&#xa2;" horiz-adv-x="749" d="M96 487v390q0 119 62.5 196.5t167.5 97.5v193h147v-197q96 -23 150.5 -98.5t54.5 -191.5v-54h-158v76q0 59 -32.5 95t-92.5 36q-59 0 -91 -36t-32 -95v-430q0 -59 32 -95t91 -36t92 36t33 95v74h158v-56q0 -117 -54.5 -192.5t-150.5 -97.5v-197h-147v193 q-104 23 -167 99.5t-63 194.5z" />
<glyph unicode="&#xa3;" horiz-adv-x="972" d="M-6 147q0 84 54 139.5t161 55.5q37 0 75 -15.5t66 -35.5q23 33 37 83t14 95q0 29 -10 72t-29 71h-256v156h187q-29 59 -48.5 127t-19.5 141q0 70 20.5 134.5t62.5 114.5t107.5 80t153.5 30q80 0 140.5 -27t101.5 -71t61.5 -103t20.5 -125v-98h-164v71q0 84 -39 136.5 t-123 52.5q-78 0 -119.5 -47t-41.5 -144q0 -70 22.5 -139.5t56.5 -132.5h273v-156h-207q10 -35 15 -70.5t5 -64.5q0 -66 -20.5 -136.5t-65.5 -137.5q37 -29 85 -49.5t83 -20.5q59 0 84 33t25 86v160h164v-144q0 -150 -58.5 -224.5t-187.5 -74.5q-80 0 -157 29t-130 76 q-41 -49 -91 -77t-116 -28q-90 0 -141 51.5t-51 126.5zM133 160q0 -20 15.5 -35.5t46.5 -15.5q29 0 53.5 14t40.5 43q-31 27 -54.5 36t-39.5 9q-29 0 -45.5 -14.5t-16.5 -36.5z" />
<glyph unicode="&#xa4;" horiz-adv-x="892" d="M92 346v672q0 76 21.5 143.5t65.5 119.5t113.5 83t166.5 31q96 0 166.5 -28t115.5 -77t66.5 -114.5t21.5 -141.5v-104h-172v96q0 92 -48 143.5t-144 51.5q-98 0 -145.5 -52.5t-47.5 -134.5v-270h430v-164h-430v-270q0 -84 47.5 -135.5t145.5 -51.5q96 0 144 51.5 t48 143.5v96h172v-104q0 -76 -21.5 -141.5t-66.5 -114.5t-115.5 -77t-166.5 -28t-166 31t-114 83t-65.5 119.5t-21.5 143.5z" />
<glyph unicode="&#xa5;" horiz-adv-x="886" d="M41 1364h201l202 -582l203 582h199l-254 -633h211v-160h-273v-137h273v-164h-273v-270h-182v270h-276v164h276v137h-276v160h219z" />
<glyph unicode="&#xa6;" d="M51 -410v2048h922v-2048h-922z" />
<glyph unicode="&#xa7;" horiz-adv-x="886" d="M68 -8v57h176v-67q0 -72 52 -113t140 -41q100 0 146.5 35t46.5 102q0 55 -41 98t-101.5 83t-131 80t-131 87t-101.5 107.5t-41 138.5q0 84 43 150.5t106 113.5q-57 49 -93 110.5t-36 141.5q0 61 20.5 119.5t63.5 102.5t107.5 71t152.5 27q96 0 164 -27t110 -73 t61.5 -106.5t19.5 -125.5v-47h-174v61q0 27 -7.5 54.5t-28 49t-56 36t-91.5 14.5q-90 0 -122.5 -42t-32.5 -102q0 -53 40 -96t99 -83t129 -80t129 -88t99 -107t40 -139q0 -176 -143 -267q59 -53 94 -110.5t35 -139.5q0 -61 -23.5 -117.5t-69.5 -98.5t-113.5 -67.5 t-155.5 -25.5q-182 0 -281.5 86t-99.5 238zM258 604q0 -33 9 -62.5t41 -61t93.5 -70.5t165.5 -95q39 16 65.5 54.5t26.5 85.5q0 35 -13 66.5t-49 66.5t-95.5 73.5t-151.5 86.5q-41 -18 -66.5 -59.5t-25.5 -84.5z" />
<glyph unicode="&#xa8;" horiz-adv-x="473" d="M27 1159v184h153v-184h-153zM293 1159v184h153v-184h-153z" />
<glyph unicode="&#xa9;" horiz-adv-x="1392" d="M45 668q0 135 49 254.5t136 209t207 140.5t259 51t259 -51t207 -140.5t136.5 -209t49.5 -254.5t-49.5 -254t-136.5 -208t-206.5 -140.5t-259.5 -51.5q-139 0 -259 51.5t-207 140.5t-136 207.5t-49 254.5zM147 668q0 -117 40 -218.5t113 -178t174 -121t222 -44.5 q123 0 223.5 44.5t173 121t112.5 178t40 218.5t-40 219t-112.5 178t-173 120t-223.5 44q-121 0 -222 -44t-174 -120t-113 -178.5t-40 -218.5zM485 553v229q0 84 61.5 138.5t160.5 54.5q98 0 154.5 -51.5t56.5 -137.5v-38h-101v36q0 43 -27.5 73t-80.5 30q-55 0 -82 -31 t-27 -76v-225q0 -43 26.5 -74.5t82.5 -31.5q53 0 80.5 29.5t27.5 72.5v39h101v-41q0 -84 -56.5 -136.5t-154.5 -52.5t-160 54.5t-62 138.5z" />
<glyph unicode="&#xaa;" horiz-adv-x="643" d="M63 829v15q0 66 30 107.5t79 69.5t111.5 42t130.5 22v101q0 92 -97 92q-59 0 -76.5 -24.5t-17.5 -75.5v-31h-131v37q0 88 54.5 148.5t170.5 60.5q63 0 106.5 -17.5t70 -49.5t39 -75t12.5 -94v-375q0 -20 9 -29.5t48 -9.5v-104h-55q-41 0 -71 20.5t-30 73.5 q-35 -43 -84 -68.5t-108 -25.5q-88 0 -139.5 51t-51.5 139zM193 838q0 -37 21.5 -62.5t66.5 -25.5q49 0 91 30.5t42 79.5v137q-113 -14 -167 -48t-54 -97v-14z" />
<glyph unicode="&#xab;" horiz-adv-x="841" d="M47 326v141q104 33 179 123t100 203h100q0 -59 -15.5 -118t-43 -111t-67.5 -95t-89 -74q49 -31 89 -73.5t67.5 -94t43 -110t15.5 -117.5h-100q-25 113 -99.5 203t-179.5 123zM397 326v141q104 33 179 123t100 203h100q0 -59 -15.5 -118t-43 -111t-67.5 -95t-89 -74 q49 -31 89 -73.5t67.5 -94t43 -110t15.5 -117.5h-100q-25 113 -99.5 203t-179.5 123z" />
<glyph unicode="&#xac;" horiz-adv-x="778" d="M100 508l181 182l-181 182l109 107l182 -182l180 182l107 -107l-182 -180l182 -182l-109 -109l-182 183l-180 -183z" />
<glyph unicode="&#xad;" horiz-adv-x="557" d="M63 551v156h431v-156h-431z" />
<glyph unicode="&#xae;" horiz-adv-x="1392" d="M45 668q0 135 49 254.5t136 209t207 140.5t259 51t259 -51t207 -140.5t136.5 -209t49.5 -254.5t-49.5 -254t-136.5 -208t-206.5 -140.5t-259.5 -51.5q-139 0 -259 51.5t-207 140.5t-136 207.5t-49 254.5zM147 668q0 -117 40 -218.5t113 -178t174 -121t222 -44.5 q123 0 223.5 44.5t173 121t112.5 178t40 218.5t-40 219t-112.5 178t-173 120t-223.5 44q-121 0 -222 -44t-174 -120t-113 -178.5t-40 -218.5zM504 381v582h237q98 0 136 -44.5t38 -117.5v-10q0 -53 -21.5 -85t-76.5 -42q53 -4 78 -42t25 -81v-60q0 -27 32 -26v-80h-30 q-66 0 -90.5 20.5t-24.5 75.5v68q0 39 -18.5 62.5t-59.5 23.5h-113v-244h-112zM616 702h105q82 0 82 82v19q0 29 -15.5 50t-56.5 21h-115v-172z" />
<glyph unicode="&#xaf;" horiz-adv-x="514" d="M23 1171v123h469v-123h-469z" />
<glyph unicode="&#xb0;" horiz-adv-x="579" d="M39 1149q0 49 18.5 93t51 78t80 54.5t102.5 20.5t101 -20.5t79 -54.5t51.5 -78t18.5 -93t-18.5 -93t-51.5 -78t-79 -53.5t-101 -19.5t-102.5 19.5t-80 53.5t-51 78t-18.5 93zM168 1149q0 -59 31.5 -97t91.5 -38q59 0 91 38t32 97t-32 97t-91 38t-91 -38t-32 -97z" />
<glyph unicode="&#xb1;" horiz-adv-x="1038" d="M49 0v983h940v-983h-940zM154 100h731v783h-731v-783z" />
<glyph unicode="&#xb2;" d="M51 -410v2048h922v-2048h-922z" />
<glyph unicode="&#xb3;" d="M51 -410v2048h922v-2048h-922z" />
<glyph unicode="&#xb4;" horiz-adv-x="364" d="M86 1102l86 276h182l-155 -276h-113z" />
<glyph unicode="&#xb6;" horiz-adv-x="1122" d="M82 860v33q0 106 32.5 193.5t91 148.5t137.5 95t171 34h498v-1683h-140v1529h-137v-1529h-141v710h-80q-92 0 -171 34t-137.5 95.5t-91 147.5t-32.5 192zM397 731q0 -86 43 -129t115 -43h39v651h-39q-72 0 -115 -48t-43 -136v-295z" />
<glyph unicode="&#xb7;" horiz-adv-x="325" d="M80 565v232h168v-232h-168z" />
<glyph unicode="&#xb8;" horiz-adv-x="391" d="M20 -203l175 244l65 -47l-100 -135q12 8 33.5 10t37.5 2q80 0 121 -49t41 -125q0 -72 -50 -121t-130 -49q-27 0 -47.5 6t-28.5 12v66h43q82 0 82 70v49q0 76 -82 75q-51 0 -96 -53z" />
<glyph unicode="&#xb9;" d="M51 -410v2048h922v-2048h-922z" />
<glyph unicode="&#xba;" horiz-adv-x="600" d="M57 883v266q0 115 70 179.5t174 64.5t174 -64.5t70 -179.5v-266q0 -115 -69.5 -179.5t-174.5 -64.5q-104 0 -174 64.5t-70 179.5zM193 854q0 -47 29.5 -76.5t78.5 -29.5q47 0 77 29.5t30 76.5v324q0 47 -30 77.5t-77 30.5q-49 0 -78.5 -30.5t-29.5 -77.5v-324z" />
<glyph unicode="&#xbb;" horiz-adv-x="841" d="M68 0q0 121 56 228.5t159 166.5q-51 31 -91 74t-68 95t-42 110.5t-14 118.5h98q25 -113 99.5 -203t178.5 -123v-141q-104 -33 -179 -123t-99 -203h-98zM418 0q0 121 56 228.5t159 166.5q-51 31 -91 74t-68 95t-42 110.5t-14 118.5h98q25 -113 99.5 -203t179.5 -123v-141 q-104 -33 -179 -123t-100 -203h-98z" />
<glyph unicode="&#xbc;" d="M51 -410v2048h922v-2048h-922z" />
<glyph unicode="&#xbd;" d="M51 -410v2048h922v-2048h-922z" />
<glyph unicode="&#xbe;" d="M51 -410v2048h922v-2048h-922z" />
<glyph unicode="&#xbf;" horiz-adv-x="675" d="M-31 -96q0 117 52.5 214t154.5 195q33 31 53.5 57.5t32.5 54.5t16.5 57.5t4.5 66.5h137q0 -61 -10.5 -106.5t-32 -88.5t-57 -92t-89.5 -119q-41 -55 -60 -116.5t-19 -118.5q0 -100 38.5 -142t118.5 -42q82 0 121 51t39 143v127h164v-145q0 -72 -18.5 -132.5t-57.5 -105.5 t-98.5 -70.5t-143.5 -25.5q-94 0 -159.5 27.5t-107.5 73.5t-60.5 107.5t-18.5 129.5zM272 731v227h168v-227h-168z" />
<glyph unicode="&#xc0;" horiz-adv-x="854" d="M14 0l310 1364h204l310 -1364h-197l-72 334h-295l-71 -334h-189zM205 1718h184l84 -276h-111zM309 500h226l-113 559z" />
<glyph unicode="&#xc1;" horiz-adv-x="854" d="M14 0l310 1364h204l310 -1364h-197l-72 334h-295l-71 -334h-189zM309 500h226l-113 559zM362 1442l87 276h182l-156 -276h-113z" />
<glyph unicode="&#xc2;" horiz-adv-x="854" d="M14 0l310 1364h204l310 -1364h-197l-72 334h-295l-71 -334h-189zM164 1462v51q133 0 184 189h150q51 -188 182 -189v-51q-20 -6 -45 -10t-45 -4q-63 0 -108.5 43t-63.5 117q-16 -74 -62.5 -117t-111.5 -43q-20 0 -39 4t-41 10zM309 500h226l-113 559z" />
<glyph unicode="&#xc3;" horiz-adv-x="854" d="M14 0l310 1364h204l310 -1364h-197l-72 334h-295l-71 -334h-189zM143 1552q0 70 34 111t106 41q37 0 73.5 -17.5t70.5 -37t61.5 -37t46.5 -17.5q23 0 30.5 11.5t7.5 33.5v68h76q27 -35 27 -84q0 -70 -34 -110.5t-105 -40.5q-37 0 -73 17t-70 36.5t-62.5 37t-46.5 17.5 q-23 0 -30 -11t-7 -32v-68h-78q-12 18 -19.5 38t-7.5 44zM309 500h226l-113 559z" />
<glyph unicode="&#xc4;" horiz-adv-x="854" d="M14 0l310 1364h204l310 -1364h-197l-72 334h-295l-71 -334h-189zM199 1499v184h153v-184h-153zM309 500h226l-113 559zM465 1499v184h153v-184h-153z" />
<glyph unicode="&#xc5;" horiz-adv-x="854" d="M14 0l310 1364h34q-45 18 -72.5 60t-27.5 92q0 66 47 115.5t121 49.5t120 -50t46 -115q0 -49 -26.5 -91.5t-73.5 -60.5h36l310 -1364h-197l-72 334h-295l-71 -334h-189zM309 500h226l-113 559zM344 1516q0 -41 21.5 -67t60.5 -26t60.5 26t21.5 67t-21.5 66.5t-60.5 25.5 t-60.5 -26t-21.5 -66z" />
<glyph unicode="&#xc6;" horiz-adv-x="1296" d="M10 0l518 1364h711v-176h-442v-389h319v-168h-319v-455h442v-176h-635v334h-270l-125 -334h-199zM397 502h207v612z" />
<glyph unicode="&#xc7;" horiz-adv-x="909" d="M92 348v668q0 76 23.5 143.5t70.5 119.5t119 83t168 31t167 -28t116 -77t66.5 -114.5t21.5 -139.5v-147h-174v143q0 86 -47.5 138.5t-143.5 52.5q-98 0 -145 -52.5t-47 -130.5v-712q0 -78 47 -130.5t145 -52.5q96 0 143.5 51.5t47.5 139.5v143h174v-147 q0 -74 -20.5 -138.5t-64.5 -112.5t-111.5 -78t-160.5 -32l-81 -112q14 10 34.5 12t38.5 2q80 0 121 -49t41 -125q0 -72 -50 -121t-130 -49q-27 0 -47.5 6t-28.5 12v66h41q39 0 61.5 17.5t22.5 52.5v49q0 76 -84 75q-51 0 -96 -53l-62 45l127 178q-76 12 -133 47t-95 85.5 t-56.5 112t-18.5 128.5z" />
<glyph unicode="&#xc8;" horiz-adv-x="804" d="M111 0v1364h634v-176h-442v-389h320v-168h-320v-455h442v-176h-634zM227 1718h185l84 -276h-111z" />
<glyph unicode="&#xc9;" horiz-adv-x="804" d="M111 0v1364h634v-176h-442v-389h320v-168h-320v-455h442v-176h-634zM346 1442l86 276h182l-155 -276h-113z" />
<glyph unicode="&#xca;" horiz-adv-x="804" d="M111 0v1364h634v-176h-442v-389h320v-168h-320v-455h442v-176h-634zM160 1462v51q133 0 184 189h150q51 -188 182 -189v-51q-20 -6 -45 -10t-45 -4q-63 0 -108.5 43t-63.5 117q-16 -74 -62.5 -117t-111.5 -43q-20 0 -39 4t-41 10z" />
<glyph unicode="&#xcb;" horiz-adv-x="804" d="M111 0v1364h634v-176h-442v-389h320v-168h-320v-455h442v-176h-634zM207 1499v184h153v-184h-153zM473 1499v184h154v-184h-154z" />
<glyph unicode="&#xcc;" horiz-adv-x="413" d="M-8 1718h184l84 -276h-110zM111 0v1364h194v-1364h-194z" />
<glyph unicode="&#xcd;" horiz-adv-x="413" d="M111 0v1364h194v-1364h-194zM139 1442l86 276h183l-156 -276h-113z" />
<glyph unicode="&#xce;" horiz-adv-x="413" d="M-51 1462v51q133 0 184 189h150q51 -188 182 -189v-51q-20 -6 -45 -10t-45 -4q-63 0 -108.5 43t-63.5 117q-16 -74 -62.5 -117t-111.5 -43q-20 0 -39 4t-41 10zM111 0v1364h194v-1364h-194z" />
<glyph unicode="&#xcf;" horiz-adv-x="413" d="M-6 1499v184h153v-184h-153zM111 0v1364h194v-1364h-194zM260 1499v184h154v-184h-154z" />
<glyph unicode="&#xd0;" horiz-adv-x="1040" d="M12 600v162h187v602h383q94 0 163.5 -27.5t114.5 -77t66.5 -117t21.5 -147.5v-626q0 -80 -21.5 -147.5t-66.5 -117t-114.5 -77t-163.5 -27.5h-383v600h-187zM391 176h178q98 0 142.5 52.5t44.5 148.5v608q0 98 -44 149.5t-143 51.5h-178v-424h180v-162h-180v-424z" />
<glyph unicode="&#xd1;" horiz-adv-x="991" d="M109 0v1364h157l324 -676l108 -239v915h185v-1364h-138l-337 664l-115 239v-903h-184zM215 1552q0 70 34 111t105 41q37 0 74 -17.5t70.5 -37t61.5 -37t46 -17.5q23 0 31 11.5t8 33.5v68h76q27 -35 27 -84q0 -70 -34 -110.5t-106 -40.5q-37 0 -72.5 17t-69.5 36.5 t-62.5 37t-47.5 17.5q-23 0 -30 -11t-7 -32v-68h-77q-12 18 -19.5 38t-7.5 44z" />
<glyph unicode="&#xd2;" horiz-adv-x="946" d="M92 360v644q0 84 23.5 154.5t70.5 122.5t119 82t168 30t168 -30t119 -82t70.5 -123t23.5 -154v-644q0 -84 -23.5 -155.5t-70.5 -123.5t-119 -82t-168 -30t-168 30t-119 82t-70.5 123.5t-23.5 155.5zM256 1718h184l84 -276h-110zM287 344q0 -88 45 -144.5t141 -56.5 t142.5 56.5t46.5 144.5v676q0 88 -46.5 144.5t-142.5 56.5t-141 -56.5t-45 -144.5v-676z" />
<glyph unicode="&#xd3;" horiz-adv-x="946" d="M92 360v644q0 84 23.5 154.5t70.5 122.5t119 82t168 30t168 -30t119 -82t70.5 -123t23.5 -154v-644q0 -84 -23.5 -155.5t-70.5 -123.5t-119 -82t-168 -30t-168 30t-119 82t-70.5 123.5t-23.5 155.5zM287 344q0 -88 45 -144.5t141 -56.5t142.5 56.5t46.5 144.5v676 q0 88 -46.5 144.5t-142.5 56.5t-141 -56.5t-45 -144.5v-676zM412 1442l86 276h182l-156 -276h-112z" />
<glyph unicode="&#xd4;" horiz-adv-x="946" d="M92 360v644q0 84 23.5 154.5t70.5 122.5t119 82t168 30t168 -30t119 -82t70.5 -123t23.5 -154v-644q0 -84 -23.5 -155.5t-70.5 -123.5t-119 -82t-168 -30t-168 30t-119 82t-70.5 123.5t-23.5 155.5zM217 1462v51q133 0 184 189h150q51 -188 182 -189v-51 q-20 -6 -44.5 -10t-45.5 -4q-63 0 -108.5 43t-63.5 117q-16 -74 -62.5 -117t-111.5 -43q-20 0 -38.5 4t-41.5 10zM287 344q0 -88 45 -144.5t141 -56.5t142.5 56.5t46.5 144.5v676q0 88 -46.5 144.5t-142.5 56.5t-141 -56.5t-45 -144.5v-676z" />
<glyph unicode="&#xd5;" horiz-adv-x="946" d="M92 360v644q0 84 23.5 154.5t70.5 122.5t119 82t168 30t168 -30t119 -82t70.5 -123t23.5 -154v-644q0 -84 -23.5 -155.5t-70.5 -123.5t-119 -82t-168 -30t-168 30t-119 82t-70.5 123.5t-23.5 155.5zM190 1552q0 70 34 111t106 41q37 0 73.5 -17.5t70.5 -37t61.5 -37 t46.5 -17.5q23 0 31 11.5t8 33.5v68h75q27 -35 27 -84q0 -70 -34 -110.5t-105 -40.5q-37 0 -73 17t-69.5 36.5t-62.5 37t-47 17.5q-23 0 -30 -11t-7 -32v-68h-78q-12 18 -19.5 38t-7.5 44zM287 344q0 -88 45 -144.5t141 -56.5t142.5 56.5t46.5 144.5v676q0 88 -46.5 144.5 t-142.5 56.5t-141 -56.5t-45 -144.5v-676z" />
<glyph unicode="&#xd6;" horiz-adv-x="946" d="M92 360v644q0 84 23.5 154.5t70.5 122.5t119 82t168 30t168 -30t119 -82t70.5 -123t23.5 -154v-644q0 -84 -23.5 -155.5t-70.5 -123.5t-119 -82t-168 -30t-168 30t-119 82t-70.5 123.5t-23.5 155.5zM266 1499v184h154v-184h-154zM287 344q0 -88 45 -144.5t141 -56.5 t142.5 56.5t46.5 144.5v676q0 88 -46.5 144.5t-142.5 56.5t-141 -56.5t-45 -144.5v-676zM532 1499v184h154v-184h-154z" />
<glyph unicode="&#xd7;" d="M51 -410v2048h922v-2048h-922z" />
<glyph unicode="&#xd8;" horiz-adv-x="946" d="M66 6q20 39 36 72q14 29 25.5 51.5t11.5 20.5q-25 47 -36 99t-11 111v644q0 84 23.5 154.5t70.5 122.5t119 82t168 30q82 0 144.5 -21.5t109.5 -60.5l55 108l99 -61q-8 -20 -21 -43q-10 -20 -23.5 -46t-29.5 -57q47 -86 47 -208v-644q0 -84 -23.5 -155.5t-70.5 -123.5 t-119 -82t-168 -30q-82 0 -144.5 21.5t-109.5 58.5q0 2 -8 -14.5t-18 -36.5q-12 -23 -27 -53zM287 442l350 691q-23 41 -64 64.5t-100 23.5q-96 0 -141 -56.5t-45 -144.5v-578zM311 231q23 -41 63 -64.5t99 -23.5q96 0 142.5 56.5t46.5 144.5v580l-14 -29q-15 -29 -39.5 -78 t-56.5 -111.5t-65 -127.5q-78 -154 -176 -347z" />
<glyph unicode="&#xd9;" horiz-adv-x="972" d="M106 326v1038h195v-1038q0 -186 186 -187q186 0 187 187v1038h192v-1038q0 -84 -27.5 -150.5t-78.5 -113t-121 -70t-154 -23.5q-82 0 -151.5 23.5t-120.5 70t-79 113t-28 150.5zM291 1718h184l84 -276h-110z" />
<glyph unicode="&#xda;" horiz-adv-x="972" d="M106 326v1038h195v-1038q0 -186 186 -187q186 0 187 187v1038h192v-1038q0 -84 -27.5 -150.5t-78.5 -113t-121 -70t-154 -23.5q-82 0 -151.5 23.5t-120.5 70t-79 113t-28 150.5zM426 1442l86 276h182l-155 -276h-113z" />
<glyph unicode="&#xdb;" horiz-adv-x="972" d="M106 326v1038h195v-1038q0 -186 186 -187q186 0 187 187v1038h192v-1038q0 -84 -27.5 -150.5t-78.5 -113t-121 -70t-154 -23.5q-82 0 -151.5 23.5t-120.5 70t-79 113t-28 150.5zM242 1462v51q133 0 184 189h149q51 -188 183 -189v-51q-20 -6 -45 -10t-45 -4 q-63 0 -108.5 43t-63.5 117q-16 -74 -62.5 -117t-111.5 -43q-20 0 -39 4t-41 10z" />
<glyph unicode="&#xdc;" horiz-adv-x="972" d="M106 326v1038h195v-1038q0 -186 186 -187q186 0 187 187v1038h192v-1038q0 -84 -27.5 -150.5t-78.5 -113t-121 -70t-154 -23.5q-82 0 -151.5 23.5t-120.5 70t-79 113t-28 150.5zM285 1499v184h153v-184h-153zM551 1499v184h154v-184h-154z" />
<glyph unicode="&#xdd;" horiz-adv-x="833" d="M-6 1364h209l223 -629l223 629h195l-328 -815v-549h-192v549zM373 1442l86 276h182l-156 -276h-112z" />
<glyph unicode="&#xde;" horiz-adv-x="880" d="M111 0v1364h194v-238h201q166 0 242.5 -84t76.5 -231v-188q0 -147 -76.5 -230.5t-242.5 -83.5h-201v-309h-194zM305 475h203q70 0 96.5 37t26.5 104v199q0 68 -26.5 105.5t-96.5 37.5h-203v-483z" />
<glyph unicode="&#xdf;" horiz-adv-x="788" d="M106 0v1042q0 141 73 231.5t216 90.5q154 0 228.5 -82t74.5 -217v-117q0 -72 -29.5 -131t-86.5 -86q70 -29 96.5 -81t26.5 -134v-278q0 -123 -69 -188.5t-179 -65.5q-23 0 -45.5 6t-36.5 16v72q88 0 124 36t36 99v340q0 57 -37 84t-117 27v114q78 0 111.5 32t33.5 89v176 q0 139 -123 139t-122 -145v-1069h-175z" />
<glyph unicode="&#xe0;" horiz-adv-x="761" d="M61 231v23q0 82 37 137t97.5 91t137.5 57.5t159 33.5v134q0 55 -29 86.5t-88 31.5q-72 0 -94.5 -30.5t-22.5 -96.5v-49h-162v56q0 55 16.5 104t51.5 86t87 58.5t124 21.5q78 0 131 -22.5t87 -63.5t48 -95.5t14 -119.5v-508q0 -53 56 -53v-129h-52q-51 0 -87.5 26.5 t-39.5 91.5q-41 -55 -101 -86.5t-132 -31.5q-111 0 -174.5 65.5t-63.5 181.5zM156 1378h184l84 -276h-111zM223 238q0 -47 26.5 -80t80.5 -33q61 0 111.5 40t50.5 105v183q-268 -33 -269 -191v-24z" />
<glyph unicode="&#xe1;" horiz-adv-x="761" d="M61 231v23q0 82 37 137t97.5 91t137.5 57.5t159 33.5v134q0 55 -29 86.5t-88 31.5q-72 0 -94.5 -30.5t-22.5 -96.5v-49h-162v56q0 55 16.5 104t51.5 86t87 58.5t124 21.5q78 0 131 -22.5t87 -63.5t48 -95.5t14 -119.5v-508q0 -53 56 -53v-129h-52q-51 0 -87.5 26.5 t-39.5 91.5q-41 -55 -101 -86.5t-132 -31.5q-111 0 -174.5 65.5t-63.5 181.5zM223 238q0 -47 26.5 -80t80.5 -33q61 0 111.5 40t50.5 105v183q-268 -33 -269 -191v-24zM309 1102l86 276h183l-156 -276h-113z" />
<glyph unicode="&#xe2;" horiz-adv-x="761" d="M61 231v23q0 82 37 137t97.5 91t137.5 57.5t159 33.5v134q0 55 -29 86.5t-88 31.5q-72 0 -94.5 -30.5t-22.5 -96.5v-49h-162v56q0 55 16.5 104t51.5 86t87 58.5t124 21.5q78 0 131 -22.5t87 -63.5t48 -95.5t14 -119.5v-508q0 -53 56 -53v-129h-52q-51 0 -87.5 26.5 t-39.5 91.5q-41 -55 -101 -86.5t-132 -31.5q-111 0 -174.5 65.5t-63.5 181.5zM123 1122v52q133 0 184 188h150q51 -188 182 -188v-52q-20 -6 -45 -10t-45 -4q-63 0 -108.5 43t-63.5 117q-16 -74 -62.5 -117t-111.5 -43q-20 0 -39 4t-41 10zM223 238q0 -47 26.5 -80t80.5 -33 q61 0 111.5 40t50.5 105v183q-268 -33 -269 -191v-24z" />
<glyph unicode="&#xe3;" horiz-adv-x="761" d="M61 231v23q0 82 37 137t97.5 91t137.5 57.5t159 33.5v134q0 55 -29 86.5t-88 31.5q-72 0 -94.5 -30.5t-22.5 -96.5v-49h-162v56q0 55 16.5 104t51.5 86t87 58.5t124 21.5q78 0 131 -22.5t87 -63.5t48 -95.5t14 -119.5v-508q0 -53 56 -53v-129h-52q-51 0 -87.5 26.5 t-39.5 91.5q-41 -55 -101 -86.5t-132 -31.5q-111 0 -174.5 65.5t-63.5 181.5zM98 1212q0 70 34 111t106 41q37 0 73.5 -17.5t70.5 -37t61.5 -37t45.5 -17.5q23 0 31 11.5t8 33.5v68h76q27 -35 27 -84q0 -70 -34 -110.5t-105 -40.5q-37 0 -73 17t-70 36.5t-62.5 37 t-46.5 17.5q-23 0 -30 -11t-7 -32v-68h-78q-12 18 -19.5 38t-7.5 44zM223 238q0 -47 26.5 -80t80.5 -33q61 0 111.5 40t50.5 105v183q-268 -33 -269 -191v-24z" />
<glyph unicode="&#xe4;" horiz-adv-x="761" d="M61 231v23q0 82 37 137t97.5 91t137.5 57.5t159 33.5v134q0 55 -29 86.5t-88 31.5q-72 0 -94.5 -30.5t-22.5 -96.5v-49h-162v56q0 55 16.5 104t51.5 86t87 58.5t124 21.5q78 0 131 -22.5t87 -63.5t48 -95.5t14 -119.5v-508q0 -53 56 -53v-129h-52q-51 0 -87.5 26.5 t-39.5 91.5q-41 -55 -101 -86.5t-132 -31.5q-111 0 -174.5 65.5t-63.5 181.5zM156 1159v184h153v-184h-153zM223 238q0 -47 26.5 -80t80.5 -33q61 0 111.5 40t50.5 105v183q-268 -33 -269 -191v-24zM422 1159v184h153v-184h-153z" />
<glyph unicode="&#xe5;" horiz-adv-x="761" d="M61 231v23q0 82 37 137t97.5 91t137.5 57.5t159 33.5v134q0 55 -29 86.5t-88 31.5q-72 0 -94.5 -30.5t-22.5 -96.5v-49h-162v56q0 55 16.5 104t51.5 86t87 58.5t124 21.5q78 0 131 -22.5t87 -63.5t48 -95.5t14 -119.5v-508q0 -53 56 -53v-129h-52q-51 0 -87.5 26.5 t-39.5 91.5q-41 -55 -101 -86.5t-132 -31.5q-111 0 -174.5 65.5t-63.5 181.5zM207 1268q0 66 47 116t119 50q74 0 120 -50t46 -116t-46.5 -116t-119.5 -50q-72 0 -119 50t-47 116zM223 238q0 -47 26.5 -80t80.5 -33q61 0 111.5 40t50.5 105v183q-268 -33 -269 -191v-24z M291 1268q0 -41 21.5 -66.5t60.5 -25.5q41 0 62.5 25.5t21.5 66.5q0 43 -21.5 67.5t-62.5 24.5q-39 0 -60.5 -24.5t-21.5 -67.5z" />
<glyph unicode="&#xe6;" horiz-adv-x="1144" d="M63 231v23q0 82 37 137t97.5 91t138.5 57.5t160 33.5v121q0 57 -27 94t-94 37q-66 0 -95.5 -30.5t-29.5 -96.5v-49h-150v56q0 55 17.5 104t50.5 86t81 58.5t109 21.5q84 0 137.5 -34t82.5 -91q35 59 94 92t137 33q119 0 191.5 -87t72.5 -235v-184h-416v-195 q0 -66 34 -105.5t100 -39.5t98.5 40t32.5 105v66h151v-43q0 -74 -20.5 -131t-56 -98t-84 -62.5t-103.5 -21.5q-80 0 -145.5 27.5t-106.5 103.5q-47 -66 -112.5 -98.5t-139.5 -32.5q-111 0 -176.5 64.5t-65.5 182.5zM227 238q0 -47 26 -80t81 -33q61 0 111.5 40t50.5 105v183 q-268 -33 -269 -191v-24zM657 567h265v115q0 66 -33 105.5t-98 39.5q-66 0 -100 -39.5t-34 -105.5v-115z" />
<glyph unicode="&#xe7;" horiz-adv-x="731" d="M82 301v352q0 147 80 234.5t219 87.5q141 0 213 -84t72 -232v-41h-152v68q0 61 -32.5 101t-98.5 40t-99.5 -39.5t-33.5 -111.5v-395q0 -150 133 -150q66 0 98.5 38t32.5 103v66h152v-41q0 -145 -71 -227t-208 -86l-92 -127q14 10 34.5 12t37.5 2q80 0 121.5 -49 t41.5 -125q0 -72 -50 -121t-130 -49q-29 0 -48 6t-28 12v66h41q39 0 61.5 17.5t22.5 52.5v49q0 76 -84 75q-51 0 -96 -53l-63 45l141 195q-100 23 -157.5 103.5t-57.5 205.5z" />
<glyph unicode="&#xe8;" horiz-adv-x="735" d="M82 301v352q0 147 80 234.5t219 87.5t212 -87t73 -235v-184h-416v-195q0 -66 33.5 -105.5t99.5 -39.5t98.5 40t32.5 105v66h152v-43q0 -147 -73 -230t-212 -83t-219 85t-80 232zM164 1378h184l84 -276h-110zM250 567h264v115q0 66 -32.5 105.5t-98.5 39.5t-99.5 -39.5 t-33.5 -105.5v-115z" />
<glyph unicode="&#xe9;" horiz-adv-x="735" d="M82 301v352q0 147 80 234.5t219 87.5t212 -87t73 -235v-184h-416v-195q0 -66 33.5 -105.5t99.5 -39.5t98.5 40t32.5 105v66h152v-43q0 -147 -73 -230t-212 -83t-219 85t-80 232zM250 567h264v115q0 66 -32.5 105.5t-98.5 39.5t-99.5 -39.5t-33.5 -105.5v-115zM324 1102 l86 276h182l-156 -276h-112z" />
<glyph unicode="&#xea;" horiz-adv-x="735" d="M82 301v352q0 147 80 234.5t219 87.5t212 -87t73 -235v-184h-416v-195q0 -66 33.5 -105.5t99.5 -39.5t98.5 40t32.5 105v66h152v-43q0 -147 -73 -230t-212 -83t-219 85t-80 232zM109 1122v52q133 0 184 188h149q51 -188 183 -188v-52q-20 -6 -45 -10t-45 -4 q-63 0 -108.5 43t-64.5 117q-16 -74 -62 -117t-112 -43q-20 0 -38.5 4t-40.5 10zM250 567h264v115q0 66 -32.5 105.5t-98.5 39.5t-99.5 -39.5t-33.5 -105.5v-115z" />
<glyph unicode="&#xeb;" horiz-adv-x="735" d="M82 301v352q0 147 80 234.5t219 87.5t212 -87t73 -235v-184h-416v-195q0 -66 33.5 -105.5t99.5 -39.5t98.5 40t32.5 105v66h152v-43q0 -147 -73 -230t-212 -83t-219 85t-80 232zM162 1159v184h153v-184h-153zM250 567h264v115q0 66 -32.5 105.5t-98.5 39.5t-99.5 -39.5 t-33.5 -105.5v-115zM428 1159v184h154v-184h-154z" />
<glyph unicode="&#xec;" horiz-adv-x="368" d="M-37 1378h184l84 -276h-110zM98 0v958h172v-958h-172z" />
<glyph unicode="&#xed;" horiz-adv-x="368" d="M98 0v958h172v-958h-172zM127 1102l86 276h182l-155 -276h-113z" />
<glyph unicode="&#xee;" horiz-adv-x="368" d="M-70 1122v52q133 0 185 188h149q51 -188 182 -188v-52q-20 -6 -44.5 -10t-45.5 -4q-63 0 -108 43t-64 117q-16 -74 -62 -117t-112 -43q-20 0 -38.5 4t-41.5 10zM98 0v958h172v-958h-172z" />
<glyph unicode="&#xef;" horiz-adv-x="368" d="M-31 1159v184h154v-184h-154zM98 0v958h172v-958h-172zM236 1159v184h153v-184h-153z" />
<glyph unicode="&#xf0;" horiz-adv-x="770" d="M82 297v401q0 57 17.5 106.5t49 84.5t74.5 55.5t94 20.5q68 0 116 -26t87 -83q0 145 -69 262l-119 -59l-37 94l94 49q-37 43 -81 82t-93 74v6h203q61 -43 106 -94l103 53l39 -94l-78 -41q100 -154 100 -373v-518q0 -74 -23.5 -131t-64.5 -98t-96 -62.5t-121 -21.5 q-63 0 -118.5 21.5t-96.5 62.5t-63.5 98t-22.5 131zM250 266q0 -59 37 -96t96 -37t97 37t38 96v398q0 74 -34.5 115.5t-100.5 41.5q-63 0 -98 -36.5t-35 -125.5v-393z" />
<glyph unicode="&#xf1;" horiz-adv-x="806" d="M98 0v958h144l12 -190q39 111 95.5 158t129.5 47q117 0 175.5 -73t58.5 -193v-707h-174v700q0 61 -31 97.5t-84 36.5q-37 0 -65.5 -24t-48 -55.5t-30 -67.5t-10.5 -60v-627h-172zM117 1212q0 70 33.5 111t105.5 41q37 0 74 -17.5t70.5 -37t61 -37t46.5 -17.5 q23 0 31 11.5t8 33.5v68h76q26 -35 26 -84q0 -70 -33.5 -110.5t-105.5 -40.5q-37 0 -73 17t-69.5 36.5t-62.5 37t-47 17.5q-23 0 -30 -11t-7 -32v-68h-78q-12 18 -19 38t-7 44z" />
<glyph unicode="&#xf2;" horiz-adv-x="765" d="M82 301v352q0 147 81 234.5t220 87.5t219 -87t80 -235v-352q0 -147 -80 -232t-219 -85t-220 85t-81 232zM166 1378h184l84 -276h-110zM252 272q0 -66 32.5 -103.5t98.5 -37.5t98.5 38t32.5 103v414q0 61 -32.5 101t-98.5 40t-98.5 -39.5t-32.5 -101.5v-414z" />
<glyph unicode="&#xf3;" horiz-adv-x="765" d="M82 301v352q0 147 81 234.5t220 87.5t219 -87t80 -235v-352q0 -147 -80 -232t-219 -85t-220 85t-81 232zM252 272q0 -66 32.5 -103.5t98.5 -37.5t98.5 38t32.5 103v414q0 61 -32.5 101t-98.5 40t-98.5 -39.5t-32.5 -101.5v-414zM328 1102l86 276h182l-156 -276h-112z" />
<glyph unicode="&#xf4;" horiz-adv-x="765" d="M82 301v352q0 147 81 234.5t220 87.5t219 -87t80 -235v-352q0 -147 -80 -232t-219 -85t-220 85t-81 232zM131 1122v52q133 0 184 188h150q51 -188 182 -188v-52q-20 -6 -44.5 -10t-45.5 -4q-63 0 -108.5 43t-63.5 117q-16 -74 -62.5 -117t-111.5 -43q-20 0 -38.5 4 t-41.5 10zM252 272q0 -66 32.5 -103.5t98.5 -37.5t98.5 38t32.5 103v414q0 61 -32.5 101t-98.5 40t-98.5 -39.5t-32.5 -101.5v-414z" />
<glyph unicode="&#xf5;" horiz-adv-x="765" d="M82 301v352q0 147 81 234.5t220 87.5t219 -87t80 -235v-352q0 -147 -80 -232t-219 -85t-220 85t-81 232zM100 1212q0 70 34 111t106 41q37 0 73.5 -17.5t70.5 -37t61.5 -37t46.5 -17.5q23 0 30.5 11.5t7.5 33.5v68h76q27 -35 27 -84q0 -70 -34 -110.5t-105 -40.5 q-37 0 -73 17t-70 36.5t-62.5 37t-46.5 17.5q-23 0 -30 -11t-7 -32v-68h-78q-12 18 -19.5 38t-7.5 44zM252 272q0 -66 32.5 -103.5t98.5 -37.5t98.5 38t32.5 103v414q0 61 -32.5 101t-98.5 40t-98.5 -39.5t-32.5 -101.5v-414z" />
<glyph unicode="&#xf6;" horiz-adv-x="765" d="M82 301v352q0 147 81 234.5t220 87.5t219 -87t80 -235v-352q0 -147 -80 -232t-219 -85t-220 85t-81 232zM174 1159v184h154v-184h-154zM252 272q0 -66 32.5 -103.5t98.5 -37.5t98.5 38t32.5 103v414q0 61 -32.5 101t-98.5 40t-98.5 -39.5t-32.5 -101.5v-414zM440 1159 v184h154v-184h-154z" />
<glyph unicode="&#xf7;" d="M51 -410v2048h922v-2048h-922z" />
<glyph unicode="&#xf8;" horiz-adv-x="768" d="M41 4l78 127q-37 72 -37 170v352q0 147 81 234.5t220 87.5q131 0 211 -80l68 111l67 -52l-41 -65q-16 -25 -28.5 -46.5t-14.5 -21.5q37 -70 37 -168v-352q0 -147 -80 -232t-219 -85q-129 0 -209 75l-68 -106zM252 344l252 406q-14 35 -44 56t-77 21q-66 0 -98.5 -39.5 t-32.5 -101.5v-342zM264 205q14 -35 43 -54.5t76 -19.5q66 0 98.5 38t32.5 103v336z" />
<glyph unicode="&#xf9;" horiz-adv-x="808" d="M96 250v708h174v-702q0 -63 31 -99t84 -36q37 0 65.5 23.5t48 55t30 67.5t10.5 61v630h172v-958h-144l-12 164q-35 -96 -93.5 -138t-131.5 -42q-117 0 -175.5 72.5t-58.5 193.5zM193 1378h184l84 -276h-111z" />
<glyph unicode="&#xfa;" horiz-adv-x="808" d="M96 250v708h174v-702q0 -63 31 -99t84 -36q37 0 65.5 23.5t48 55t30 67.5t10.5 61v630h172v-958h-144l-12 164q-35 -96 -93.5 -138t-131.5 -42q-117 0 -175.5 72.5t-58.5 193.5zM346 1102l86 276h182l-155 -276h-113z" />
<glyph unicode="&#xfb;" horiz-adv-x="808" d="M96 250v708h174v-702q0 -63 31 -99t84 -36q37 0 65.5 23.5t48 55t30 67.5t10.5 61v630h172v-958h-144l-12 164q-35 -96 -93.5 -138t-131.5 -42q-117 0 -175.5 72.5t-58.5 193.5zM147 1122v52q133 0 185 188h149q51 -188 183 -188v-52q-20 -6 -45 -10t-46 -4 q-63 0 -108 43t-64 117q-16 -74 -62 -117t-112 -43q-20 0 -38.5 4t-41.5 10z" />
<glyph unicode="&#xfc;" horiz-adv-x="808" d="M96 250v708h174v-702q0 -63 31 -99t84 -36q37 0 65.5 23.5t48 55t30 67.5t10.5 61v630h172v-958h-144l-12 164q-35 -96 -93.5 -138t-131.5 -42q-117 0 -175.5 72.5t-58.5 193.5zM195 1159v184h153v-184h-153zM461 1159v184h153v-184h-153z" />
<glyph unicode="&#xfd;" horiz-adv-x="692" d="M16 958h172l115 -530l41 -215l43 215l115 530h170l-260 -1021q-16 -63 -35 -114.5t-47.5 -86.5t-71.5 -54.5t-108 -19.5h-64v137h49q63 0 85 21.5t34 68.5l16 82zM293 1102l86 276h182l-155 -276h-113z" />
<glyph unicode="&#xfe;" horiz-adv-x="788" d="M98 -332v1696h170v-498q45 59 94.5 84t126.5 25q45 0 85 -19.5t69 -54.5t46.5 -84t17.5 -108v-459q0 -57 -17.5 -106.5t-46.5 -85t-68.5 -55t-85.5 -19.5q-78 0 -127 25.5t-94 84.5v-426h-170zM268 291q0 -74 37 -116t103 -42q61 0 96 40t35 128v358q0 88 -35 128t-96 40 q-66 0 -103 -42t-37 -115v-379z" />
<glyph unicode="&#xff;" horiz-adv-x="692" d="M16 958h172l115 -530l41 -215l43 215l115 530h170l-260 -1021q-16 -63 -35 -114.5t-47.5 -86.5t-71.5 -54.5t-108 -19.5h-64v137h49q63 0 85 21.5t34 68.5l16 82zM139 1159v184h154v-184h-154zM406 1159v184h153v-184h-153z" />
<glyph unicode="&#x152;" horiz-adv-x="1343" d="M92 395v574q0 88 23.5 160.5t70.5 125t121 81t172 28.5h805v-176h-440v-389h319v-168h-319v-455h440v-176h-805q-98 0 -172 28.5t-121 81t-70.5 125t-23.5 160.5zM287 395q0 -115 48 -167t152 -52h162v1010h-162q-104 0 -152 -51.5t-48 -167.5v-572z" />
<glyph unicode="&#x153;" horiz-adv-x="1167" d="M82 301v352q0 74 21.5 133.5t60.5 101.5t90 64.5t108 22.5q82 0 141.5 -34t94.5 -95q35 61 94.5 95t138.5 34q121 0 194 -87t73 -235v-184h-416v-195q0 -66 33 -105.5t98 -39.5q66 0 99.5 40t33.5 105v66h152v-43q0 -147 -73 -230t-194 -83q-160 0 -233 127 q-70 -127 -236 -127q-57 0 -108 21.5t-90 63.5t-60.5 100t-21.5 132zM250 272q0 -66 33.5 -103.5t97.5 -37.5q66 0 99.5 38t33.5 103v414q0 61 -34 101t-99 40q-63 0 -97 -39.5t-34 -101.5v-414zM682 567h264v115q0 66 -33.5 105.5t-99.5 39.5t-98.5 -39.5t-32.5 -105.5 v-115z" />
<glyph unicode="&#x178;" horiz-adv-x="833" d="M-6 1364h209l223 -629l223 629h195l-328 -815v-549h-192v549zM207 1499v184h153v-184h-153zM473 1499v184h154v-184h-154z" />
<glyph unicode="&#x2c6;" horiz-adv-x="563" d="M25 1122v52q133 0 184 188h149q51 -188 183 -188v-52q-20 -6 -45 -10t-45 -4q-63 0 -108.5 43t-63.5 117q-16 -74 -62.5 -117t-112.5 -43q-20 0 -38.5 4t-40.5 10z" />
<glyph unicode="&#x2dc;" horiz-adv-x="581" d="M25 1212q0 70 33.5 111t105.5 41q37 0 73.5 -17.5t70.5 -37t61.5 -37t46.5 -17.5q23 0 31 11.5t8 33.5v68h75q27 -35 27 -84q0 -70 -34 -110.5t-105 -40.5q-37 0 -73 17t-69.5 36.5t-62.5 37t-47 17.5q-23 0 -30 -11t-7 -32v-68h-78q-12 18 -19 38t-7 44z" />
<glyph unicode="&#x2000;" horiz-adv-x="859" />
<glyph unicode="&#x2001;" horiz-adv-x="1718" />
<glyph unicode="&#x2002;" horiz-adv-x="859" />
<glyph unicode="&#x2003;" horiz-adv-x="1718" />
<glyph unicode="&#x2004;" horiz-adv-x="572" />
<glyph unicode="&#x2005;" horiz-adv-x="429" />
<glyph unicode="&#x2006;" horiz-adv-x="286" />
<glyph unicode="&#x2007;" horiz-adv-x="286" />
<glyph unicode="&#x2008;" horiz-adv-x="214" />
<glyph unicode="&#x2009;" horiz-adv-x="343" />
<glyph unicode="&#x200a;" horiz-adv-x="95" />
<glyph unicode="&#x2010;" horiz-adv-x="557" d="M63 551v156h431v-156h-431z" />
<glyph unicode="&#x2011;" horiz-adv-x="557" d="M63 551v156h431v-156h-431z" />
<glyph unicode="&#x2012;" horiz-adv-x="557" d="M63 551v156h431v-156h-431z" />
<glyph unicode="&#x2013;" horiz-adv-x="972" d="M129 551v156h717v-156h-717z" />
<glyph unicode="&#x2014;" horiz-adv-x="1460" d="M129 551v156h1204v-156h-1204z" />
<glyph unicode="&#x2018;" horiz-adv-x="325" d="M78 940v205q0 98 47 159.5t156 61.5v-59q-53 0 -82 -36t-29 -100h76v-231h-168z" />
<glyph unicode="&#x2019;" horiz-adv-x="325" d="M43 940v59q53 0 83 35t30 99h-76v231h168v-205q0 -96 -48 -157.5t-157 -61.5z" />
<glyph unicode="&#x201a;" horiz-adv-x="325" d="M43 -135q53 0 83 36t30 99h-76v231h168v-204q0 -98 -48 -160t-157 -62v60z" />
<glyph unicode="&#x201c;" horiz-adv-x="575" d="M78 940v205q0 98 47 159.5t156 61.5v-59q-53 0 -82 -36t-29 -100h76v-231h-168zM326 940v205q0 98 47 159.5t155 61.5v-59q-53 0 -82.5 -36t-29.5 -100h78v-231h-168z" />
<glyph unicode="&#x201d;" horiz-adv-x="575" d="M43 940v59q53 0 83 35t30 99h-76v231h168v-205q0 -96 -48 -157.5t-157 -61.5zM291 940v59q53 0 82.5 35t29.5 99h-77v231h168v-205q0 -96 -47.5 -157.5t-155.5 -61.5z" />
<glyph unicode="&#x201e;" horiz-adv-x="575" d="M43 -135q53 0 83 36t30 99h-76v231h168v-204q0 -98 -48 -160t-157 -62v60zM291 -135q53 0 82.5 36t29.5 99h-77v231h168v-204q0 -98 -47.5 -160t-155.5 -62v60z" />
<glyph unicode="&#x2022;" horiz-adv-x="604" d="M63 682q0 115 68 178.5t172 63.5q102 0 170 -63.5t68 -178.5t-67.5 -178.5t-170.5 -63.5q-104 0 -172 63.5t-68 178.5z" />
<glyph unicode="&#x2026;" horiz-adv-x="1062" d="M111 0v231h168v-231h-168zM446 0v231h168v-231h-168zM784 0v231h168v-231h-168z" />
<glyph unicode="&#x202f;" horiz-adv-x="343" />
<glyph unicode="&#x2039;" horiz-adv-x="491" d="M47 326v141q104 33 179 123t100 203h100q0 -59 -15.5 -118t-43 -111t-67.5 -95t-89 -74q49 -31 89 -73.5t67.5 -94t43 -110t15.5 -117.5h-100q-25 113 -99.5 203t-179.5 123z" />
<glyph unicode="&#x203a;" horiz-adv-x="491" d="M70 0q0 121 56 228.5t159 166.5q-51 31 -91 74t-68 95t-42 110.5t-14 118.5h98q25 -113 99.5 -203t178.5 -123v-141q-104 -33 -178.5 -123t-99.5 -203h-98z" />
<glyph unicode="&#x205f;" horiz-adv-x="429" />
<glyph unicode="&#x20ac;" horiz-adv-x="892" d="M92 346v672q0 76 21.5 143.5t65.5 119.5t113.5 83t166.5 31q96 0 166.5 -28t115.5 -77t66.5 -114.5t21.5 -141.5v-104h-172v96q0 92 -48 143.5t-144 51.5q-98 0 -145.5 -52.5t-47.5 -134.5v-270h430v-164h-430v-270q0 -84 47.5 -135.5t145.5 -51.5q96 0 144 51.5 t48 143.5v96h172v-104q0 -76 -21.5 -141.5t-66.5 -114.5t-115.5 -77t-166.5 -28t-166 31t-114 83t-65.5 119.5t-21.5 143.5z" />
<glyph unicode="&#x2122;" horiz-adv-x="1202" d="M47 1274v90h418v-90h-156v-451h-106v451h-156zM563 823v541h146l92 -301l35 -141l38 141l87 301h149v-541h-98v439l-39 -152l-90 -287h-97l-88 287l-39 152v-439h-96z" />
<glyph unicode="&#x25fc;" horiz-adv-x="962" d="M0 0v963h963v-963h-963z" />
</font>
</defs>
</svg>
